Coordinates
version=1
nRows=15
nColumns=34
inDegrees=yes

Units are S.I. units (second, meters, Newtons, ...)
If the header above contains a line with 'inDegrees', this indicates whether rotational values are in degrees (yes) or radians (no).

endheader
time	pelvis_tilt	pelvis_list	pelvis_rotation	pelvis_tx	pelvis_ty	pelvis_tz	hip_flexion_r	hip_adduction_r	hip_rotation_r	knee_angle_r	ankle_angle_r	subtalar_angle_r	mtp_angle_r	hip_flexion_l	hip_adduction_l	hip_rotation_l	knee_angle_l	ankle_angle_l	subtalar_angle_l	mtp_angle_l	lumbar_extension	lumbar_bending	lumbar_rotation	arm_flex_r	arm_add_r	arm_rot_r	elbow_flex_r	pro_sup_r	arm_flex_l	arm_add_l	arm_rot_l	elbow_flex_l	pro_sup_l
     15.73333330	      4.19767029	     -9.94354627	      6.30436432	      0.30125364	      0.86534386	     -0.15794473	     24.11151397	      4.07250033	    -15.55978410	      7.58632947	    -23.92189249	     -3.83554094	      0.00000000	     -5.18238761	     -5.52442495	     -2.18228076	      2.73984498	      4.55437301	      2.83108297	      0.00000000	     -6.72327235	      6.48890124	     -5.82434135	     67.82584244	      0.87517009	     72.83974477	    106.09851840	     84.66882223	     81.96497667	     -0.14078498	     82.70628331	    123.83586174	     72.68260465
     15.75000000	      4.30729761	     -9.96894627	      6.31775055	      0.30318992	      0.86618706	     -0.15790099	     23.56116969	      4.17964361	    -15.52434427	      7.42553135	    -24.00641156	     -3.38287592	      0.00000000	     -5.53860455	     -5.54928011	     -2.29997300	      2.55919794	      4.47771058	      2.89394620	      0.00000000	     -6.56423815	      6.40026812	     -6.20313107	     67.52567388	      1.44754659	     73.01978608	    106.02467057	     84.60654782	     82.01495840	     -0.59602346	     82.85058929	    123.11308176	     72.74257777
     15.76666670	      4.29160859	     -9.98786418	      6.39293432	      0.30374369	      0.86606322	     -0.15808846	     23.35366702	      4.23343447	    -15.53744437	      7.50256095	    -24.01985707	     -3.36155009	      0.00000000	     -5.57976485	     -5.55840664	     -2.30179909	      2.57237468	      4.50292075	      2.88559565	      0.00000000	     -6.36618448	      6.31937059	     -6.11650355	     67.53523127	      1.53761782	     73.02588886	    106.04748595	     84.60424484	     82.03183442	     -0.59869369	     82.83870584	    123.12381039	     72.74662446
     15.78333330	      4.30443877	    -10.04286444	      6.19425385	      0.30289738	      0.86549605	     -0.15816779	     23.06824166	      4.41347764	    -15.67261807	      7.31054156	    -24.31992367	     -3.11097235	      0.00000000	     -5.79993612	     -5.54391344	     -2.43056983	      2.38575694	      4.77456539	      2.72310217	      0.00000000	     -6.15951204	      6.19822598	     -5.96099817	     67.01924174	      1.47662996	     73.23312049	    105.92368878	     84.58889257	     81.90068126	     -0.83662857	     82.88631052	    123.17115136	     72.77525370
     15.80000000	      4.18732410	    -10.12982695	      6.31503767	      0.30220879	      0.86649845	     -0.15752919	     22.95102862	      4.55830633	    -15.54644105	      7.22325191	    -24.55701630	     -2.72355160	      0.00000000	     -5.63990729	     -5.59999006	     -2.45466999	      2.33050745	      4.84318800	      2.69375205	      0.00000000	     -6.13422967	      6.34372276	     -5.84299006	     67.02884952	      1.47231612	     73.11179375	    105.73639412	     84.54566561	     82.03393621	     -1.22243225	     82.94013899	    122.91208469	     72.81022154
     15.81666670	      4.10078220	    -10.08716403	      6.33644021	      0.30213209	      0.86773570	     -0.15721024	     22.80789677	      4.62020732	    -15.87227605	      6.96172382	    -25.23131239	     -2.26275681	      0.00000000	     -5.46379560	     -5.54257494	     -2.54094469	      2.42110514	      4.66035807	      2.62560520	      0.00000000	     -6.16180671	      6.19501222	     -5.66183649	     66.90965428	      1.65390413	     72.71469450	    104.24315201	     84.35754032	     82.31856281	     -1.38430476	     83.25610554	    122.54866547	     72.91348346
     15.83333330	      4.01416693	    -10.15190453	      6.41901280	      0.30490804	      0.86113436	     -0.15700306	     22.86344441	      4.75220477	    -15.91977215	      7.09412714	    -25.57791052	     -2.15202772	      0.00000000	     -5.20003683	     -5.59039540	     -2.63311253	      2.58135827	      4.55505421	      2.57627311	      0.00000000	     -6.17722441	      6.31917710	     -5.65663712	     67.33671903	      1.85278080	     72.44372218	    104.46325196	     84.31992730	     83.13237557	     -1.93758667	     82.96359644	    122.25425361	     72.92843857
     15.85000000	      3.98022872	    -10.05214126	      6.53835759	      0.30438401	      0.86568884	     -0.15673724	     22.78851374	      4.79497187	    -15.99316241	      7.18037825	    -25.83835007	     -2.08944974	      0.00000000	     -5.01510762	     -5.49852772	     -2.43733166	      2.70017863	      4.51774727	      2.64382940	      0.00000000	     -6.22680290	      6.12389758	     -5.39534205	     67.48691958	      1.99203289	     72.38696524	    104.54244051	     84.29399530	     83.24072986	     -1.87312441	     82.95127616	    122.42019570	     72.96057619
     15.86666670	      3.92265671	    -10.05037184	      6.68918375	      0.30294626	      0.86599882	     -0.15656662	     22.79256297	      4.93094523	    -16.00516770	      7.19147296	    -25.85727165	     -2.08415927	      0.00000000	     -4.88151325	     -5.48879449	     -2.43261262	      2.66497870	      4.50234687	      2.64260041	      0.00000000	     -6.34356420	      6.04930000	     -5.29921808	     67.50671179	      1.99687431	     72.37607066	    104.50341034	     84.28857081	     83.25683466	     -1.89043729	     82.96101927	    122.43761843	     72.96581167
     15.88333330	      3.86751413	    -10.07960200	      6.63159735	      0.30311981	      0.86380427	     -0.15632652	     22.95569084	      5.05660860	    -16.13755006	      7.45038357	    -26.25302168	     -2.08659270	      0.00000000	     -4.52944853	     -5.54154839	     -2.28278269	      3.06167248	      4.29813999	      2.63748291	      0.00000000	     -6.51560163	      6.08950201	     -4.92701677	     67.81875473	      1.84490268	     72.15355048	    104.04043459	     84.23045539	     84.06951366	     -1.69624543	     82.82693506	    122.67583768	     73.01294860
     15.90000000	      3.77173036	     -9.98692376	      6.57287376	      0.30385848	      0.86234288	     -0.15616491	     23.13195052	      5.07748693	    -16.24780007	      7.70478680	    -26.95798280	     -2.12102407	      0.00000000	     -4.51257006	     -5.40933318	     -2.28170806	      3.01872619	      4.39314237	      2.44483443	      0.00000000	     -6.52517325	      5.92086308	     -5.00197911	     67.88979514	      1.95198686	     72.11764965	    104.30266496	     84.18977300	     84.63812112	     -1.95385302	     82.78840237	    122.64763944	     73.07136699
     15.91666670	      3.70593144	     -9.93788302	      6.75946671	      0.30753721	      0.86073218	     -0.15728708	     23.23351916	      5.12749690	    -16.11849797	      7.64492147	    -27.38380285	     -2.76153879	      0.00000000	     -4.36406542	     -5.35807378	     -1.97955491	      3.24597169	      4.32777184	      1.98245178	      0.00000000	     -6.66370835	      5.80561262	     -5.40304552	     68.21814687	      1.86127107	     72.26688522	    106.48213878	     84.13196761	     85.28567673	     -2.30221022	     82.89288864	    122.25429539	     73.30838255
     15.93333330	      3.73001772	     -9.98334367	      6.70861644	      0.30739302	      0.85813774	     -0.15695176	     23.39676063	      5.32076722	    -16.04394088	      7.90760438	    -27.57119693	     -2.69967463	      0.00000000	     -4.44078605	     -5.39528537	     -2.15657345	      3.27230876	      4.37395838	      1.77827950	      0.00000000	     -6.58402536	      5.91157914	     -5.53530599	     68.57549052	      1.89016777	     72.02911882	    106.70750611	     84.11634456	     85.72045923	     -2.28520633	     82.69863348	    122.15050881	     73.34124495
     15.95000000	      3.66630852	     -9.72588238	      6.64635728	      0.30427584	      0.86167644	     -0.15546447	     23.53787685	      5.27517140	    -15.92217583	      7.65147476	    -27.75315449	     -2.85429234	      0.00000000	     -4.35754511	     -5.06144836	     -1.95377405	      3.37092768	      4.13680782	      1.38035654	      0.00000000	     -6.84196592	      5.59556091	     -5.16619775	     68.88239615	      1.45181579	     72.28483607	    108.78123842	     84.13011343	     86.38870693	     -2.02827160	     82.86006489	    121.27667043	     73.59643860
     15.96666670	      3.59063497	     -9.62962972	      6.69590829	      0.30565240	      0.85867178	     -0.15542805	     23.68688409	      5.34938228	    -15.60525218	      7.52466976	    -27.56153008	     -2.66000511	      0.00000000	     -4.21062897	     -4.90979695	     -1.73242511	      3.49628498	      4.28499744	      1.32794131	      0.00000000	     -6.89954162	      5.57580044	     -5.26396801	     68.95189321	      1.48731640	     72.26752366	    109.34405072	     84.14669511	     86.91599115	     -2.15016223	     82.84598044	    120.72128280	     73.67375722
